<svg width="27" height="28" viewBox="0 0 27 28" fill="none" xmlns="http://www.w3.org/2000/svg">
<path d="M18.1875 1H4.125C3.2962 1 2.50134 1.26919 1.91529 1.74836C1.32924 2.22753 1 2.87743 1 3.55507V23.9957C1 24.6733 1.32924 25.3232 1.91529 25.8024C2.50134 26.2815 3.2962 26.5507 4.125 26.5507H22.875C23.7038 26.5507 24.4987 26.2815 25.0847 25.8024C25.6708 25.3232 26 24.6733 26 23.9957V7.38768L18.1875 1Z" stroke="#FF4500" stroke-width="2" stroke-linecap="round" stroke-linejoin="round"/>
<path d="M16.625 1V6.11015C16.625 6.7878 16.9542 7.43769 17.5403 7.91686C18.1263 8.39603 18.9212 8.66522 19.75 8.66522H26M7.25 15.0529H10.375M16.625 15.0529H19.75M7.25 20.1631H10.375M16.625 20.1631H19.75" stroke="#FF4500" stroke-width="2" stroke-linecap="round" stroke-linejoin="round"/>
</svg>
