<svg width="33" height="33" viewBox="0 0 33 33" fill="none" xmlns="http://www.w3.org/2000/svg">
<path d="M30.6797 10.6644C30.5832 10.5542 30.4643 10.4657 30.3309 10.4051C30.1975 10.3444 30.0528 10.3128 29.9062 10.3125H24.1867L17.2734 2.41439C17.1767 2.30466 17.0576 2.21677 16.9243 2.15658C16.7909 2.09638 16.6463 2.06525 16.5 2.06525C16.3537 2.06525 16.209 2.09638 16.0757 2.15658C15.9423 2.21677 15.8233 2.30466 15.7266 2.41439L8.81331 10.3125H3.09374C2.94677 10.3125 2.80149 10.3439 2.66765 10.4046C2.5338 10.4653 2.41448 10.5539 2.31769 10.6645C2.22089 10.7751 2.14884 10.9051 2.10639 11.0458C2.06393 11.1865 2.05204 11.3347 2.07152 11.4804L4.01413 26.0545C4.0819 26.5491 4.32612 27.0026 4.70181 27.3314C5.0775 27.6602 5.55935 27.8421 6.05859 27.8437H26.9414C27.4406 27.8421 27.9225 27.6602 28.2982 27.3314C28.6739 27.0026 28.9181 26.5491 28.9859 26.0545L30.9285 11.4804C30.9476 11.3345 30.9353 11.1862 30.8924 11.0454C30.8495 10.9047 30.777 10.7748 30.6797 10.6644ZM10.5187 23.7187C10.484 23.7207 10.4491 23.7207 10.4143 23.7187C10.1578 23.72 9.90998 23.6256 9.71929 23.454C9.5286 23.2824 9.40873 23.0459 9.38308 22.7906L8.6612 15.5719C8.63385 15.2997 8.71573 15.0279 8.88882 14.8161C9.06191 14.6043 9.31204 14.47 9.58417 14.4426C9.85631 14.4153 10.1282 14.4972 10.3399 14.6702C10.5517 14.8433 10.686 15.0935 10.7134 15.3656L11.4353 22.5844C11.4641 22.8563 11.3838 23.1286 11.2119 23.3413C11.0401 23.5541 10.7907 23.6898 10.5187 23.7187ZM17.5312 22.6875C17.5312 22.961 17.4226 23.2233 17.2292 23.4167C17.0358 23.6101 16.7735 23.7187 16.5 23.7187C16.2265 23.7187 15.9642 23.6101 15.7708 23.4167C15.5774 23.2233 15.4687 22.961 15.4687 22.6875V15.4687C15.4687 15.1952 15.5774 14.9329 15.7708 14.7395C15.9642 14.5461 16.2265 14.4375 16.5 14.4375C16.7735 14.4375 17.0358 14.5461 17.2292 14.7395C17.4226 14.9329 17.5312 15.1952 17.5312 15.4687V22.6875ZM11.5539 10.3125L16.5 4.65994L21.4461 10.3125H11.5539ZM24.3323 15.5719L23.6105 22.7906C23.5849 23.0448 23.466 23.2804 23.2766 23.4518C23.0873 23.6233 22.8411 23.7184 22.5857 23.7187C22.5509 23.7207 22.516 23.7207 22.4812 23.7187C22.3465 23.7052 22.2157 23.6652 22.0964 23.6012C21.9771 23.5371 21.8716 23.4501 21.7859 23.3453C21.7002 23.2404 21.636 23.1197 21.5969 22.99C21.5579 22.8604 21.5447 22.7243 21.5583 22.5895L22.2801 15.3708C22.3075 15.0986 22.4418 14.8485 22.6536 14.6754C22.8654 14.5023 23.1372 14.4204 23.4094 14.4478C23.6815 14.4751 23.9316 14.6095 24.1047 14.8212C24.2778 15.033 24.3597 15.3049 24.3323 15.577V15.5719Z" fill="#FF4500"/>
</svg>
