<svg width="33" height="33" viewBox="0 0 33 33" fill="none" xmlns="http://www.w3.org/2000/svg">
<path d="M32.3401 15.0503L24.7509 8.27585V3.66188C24.7914 2.73715 24.4997 1.83237 23.9399 1.14592C23.3801 0.459478 22.5979 0.0473858 21.7648 0H2.95695C2.12968 0.0566852 1.35585 0.472809 0.80309 1.15822C0.250331 1.84364 -0.0368387 2.74315 0.00379207 3.66188V21.9713C-0.0115202 22.6984 0.168599 23.414 0.521188 24.0271C0.873778 24.6401 1.38287 25.1227 1.98356 25.4135C1.67973 26.2384 1.56131 27.133 1.63853 28.02C1.71576 28.9071 1.9863 29.7599 2.42682 30.505C2.86734 31.2502 3.46461 31.8651 4.16709 32.2969C4.86957 32.7287 5.65616 32.9642 6.45899 32.9833C7.26182 33.0024 8.05679 32.8045 8.77528 32.4065C9.49378 32.0085 10.1142 31.4225 10.5831 30.699C11.052 29.9755 11.3552 29.1363 11.4666 28.2537C11.578 27.3712 11.4942 26.4718 11.2225 25.6332H21.7153C21.444 26.4628 21.3568 27.3528 21.4611 28.2278C21.5655 29.1028 21.8582 29.937 22.3147 30.6598C22.7712 31.3825 23.3778 31.9726 24.0834 32.3799C24.7889 32.7873 25.5725 33 26.3678 33C27.1631 33 27.9466 32.7873 28.6522 32.3799C29.3577 31.9726 29.9644 31.3825 30.4208 30.6598C30.8773 29.937 31.1701 29.1028 31.2744 28.2278C31.3788 27.3528 31.2916 26.4628 31.0202 25.6332H31.3502C31.7877 25.6332 32.2074 25.4403 32.5168 25.0969C32.8262 24.7535 33 24.2878 33 23.8022V16.4785C32.9949 16.2004 32.9329 15.9273 32.8186 15.6799C32.7042 15.4324 32.5406 15.2171 32.3401 15.0503ZM29.7004 17.3573V21.9713H24.7509V12.9631L29.7004 17.3573ZM8.25284 27.4641C8.25284 27.8262 8.15608 28.1802 7.9748 28.4813C7.79352 28.7824 7.53585 29.0171 7.23439 29.1557C6.93293 29.2943 6.6012 29.3305 6.28117 29.2599C5.96114 29.1892 5.66717 29.0148 5.43644 28.7588C5.20571 28.5027 5.04858 28.1765 4.98492 27.8213C4.92127 27.4661 4.95394 27.098 5.07881 26.7634C5.20368 26.4289 5.41514 26.1429 5.68645 25.9417C5.95776 25.7405 6.27673 25.6332 6.60303 25.6332C7.04059 25.6332 7.46023 25.8261 7.76963 26.1694C8.07903 26.5128 8.25284 26.9785 8.25284 27.4641ZM16.5019 21.9713H3.30341V3.66188H21.4513V21.9713H16.5019ZM28.0506 27.4641C28.0506 27.8262 27.9538 28.1802 27.7725 28.4813C27.5912 28.7824 27.3336 29.0171 27.0321 29.1557C26.7306 29.2943 26.3989 29.3305 26.0789 29.2599C25.7589 29.1892 25.4649 29.0148 25.2342 28.7588C25.0034 28.5027 24.8463 28.1765 24.7826 27.8213C24.719 27.4661 24.7517 27.098 24.8765 26.7634C25.0014 26.4289 25.2129 26.1429 25.4842 25.9417C25.7555 25.7405 26.0745 25.6332 26.4008 25.6332C26.8383 25.6332 27.258 25.8261 27.5674 26.1694C27.8768 26.5128 28.0506 26.9785 28.0506 27.4641Z" fill="#FF4500"/>
</svg>
