<svg width="36" height="36" viewBox="0 0 36 36" fill="none" xmlns="http://www.w3.org/2000/svg">
<path d="M18 0C8.1 0 0 7.2 0 16C0 20.2 1.8 24.2 5.04 27C5.04 28.2 4.32 31.4 0 36C0 36 6.3 36 11.7 31C13.68 31.6 15.84 32 18 32C27.9 32 36 24.8 36 16C36 7.2 27.9 0 18 0ZM19.8 24H16.2V20H19.8V24ZM23.04 14C22.5 14.8 21.78 15.2 21.06 15.6C20.52 16 20.34 16.2 20.16 16.6C19.8 17 19.8 17.4 19.8 18H16.2C16.2 17 16.38 16.4 16.74 15.8C17.1 15.4 17.82 14.8 18.72 14.2C19.26 14 19.62 13.6 19.8 13.2C19.98 12.8 20.16 12.2 20.16 11.8C20.16 11.2 19.98 10.8 19.62 10.4C19.26 10 18.72 9.8 18.18 9.8C17.64 9.8 17.28 10 16.92 10.2C16.56 10.4 16.38 10.8 16.38 11.4H12.78C12.96 10 13.5 8.8 14.4 8C15.3 7.2 16.56 7 18.18 7C19.8 7 21.24 7.4 22.14 8.2C23.04 9 23.58 10.2 23.58 11.6C23.76 12.4 23.58 13.2 23.04 14Z" fill="#1C1C1C"/>
</svg>
