<svg width="50" height="50" viewBox="0 0 50 50" fill="none" xmlns="http://www.w3.org/2000/svg">
<path d="M35.4167 37.5C33.1042 37.5 31.25 39.3542 31.25 41.6667C31.25 42.7718 31.689 43.8316 32.4704 44.613C33.2518 45.3944 34.3116 45.8334 35.4167 45.8334C36.5217 45.8334 37.5815 45.3944 38.3629 44.613C39.1443 43.8316 39.5833 42.7718 39.5833 41.6667C39.5833 40.5616 39.1443 39.5018 38.3629 38.7204C37.5815 37.939 36.5217 37.5 35.4167 37.5ZM2.08333 4.16669V8.33335H6.25L13.75 24.1459L10.9167 29.25C10.6042 29.8334 10.4167 30.5209 10.4167 31.25C10.4167 32.3551 10.8556 33.4149 11.6371 34.1963C12.4185 34.9777 13.4783 35.4167 14.5833 35.4167H39.5833V31.25H15.4583C15.3202 31.25 15.1877 31.1951 15.09 31.0975C14.9924 30.9998 14.9375 30.8673 14.9375 30.7292C14.9375 30.625 14.9583 30.5417 15 30.4792L16.875 27.0834H32.3958C33.9583 27.0834 35.3333 26.2084 36.0417 24.9375L43.5 11.4584C43.6458 11.125 43.75 10.7709 43.75 10.4167C43.75 9.86415 43.5305 9.33425 43.1398 8.94355C42.7491 8.55285 42.2192 8.33335 41.6667 8.33335H10.8542L8.89583 4.16669M14.5833 37.5C12.2708 37.5 10.4167 39.3542 10.4167 41.6667C10.4167 42.7718 10.8556 43.8316 11.6371 44.613C12.4185 45.3944 13.4783 45.8334 14.5833 45.8334C15.6884 45.8334 16.7482 45.3944 17.5296 44.613C18.311 43.8316 18.75 42.7718 18.75 41.6667C18.75 40.5616 18.311 39.5018 17.5296 38.7204C16.7482 37.939 15.6884 37.5 14.5833 37.5Z" fill="#1C1C1C"/>
</svg>
